<?xml version="1.0" encoding="UTF-8"?>
<svg width="30px" height="30px" viewBox="0 0 30 30" version="1.1" xmlns="http://www.w3.org/2000/svg" xmlns:xlink="http://www.w3.org/1999/xlink">
    <!-- Generator: sketchtool 52.6 (67491) - http://www.bohemiancoding.com/sketch -->
    <title>5BE482EE-37DA-4B70-A3D7-1AD7B6395107</title>
    <desc>Created with sketchtool.</desc>
    <defs>
        <path d="M22,0 L7,0 C6.31,0 5.77,0.35 5.41,0.88 L0,9 L5.41,17.11 C5.77,17.64 6.31,18 7,18 L22,18 C23.1,18 24,17.1 24,16 L24,2 C24,0.9 23.1,0 22,0 Z M19,12.59 L17.59,14 L14,10.41 L10.41,14 L9,12.59 L12.59,9 L9,5.41 L10.41,4 L14,7.59 L17.59,4 L19,5.41 L15.41,9 L19,12.59 Z" id="path-1"></path>
    </defs>
    <g id="💻-Authenticated-user" stroke="none" stroke-width="1" fill="none" fill-rule="evenodd">
        <g id="dialpad-popup" transform="translate(-326.000000, -468.000000)">
            <g id="Group-10" transform="translate(31.000000, 36.000000)">
                <g id="ic_backspace_24px" transform="translate(298.000000, 438.000000)">
                    <mask id="mask-2" fill="white">
                        <use xlink:href="#path-1"></use>
                    </mask>
                    <use id="Erase_back" fill="#B0BAC5" fill-rule="nonzero" xlink:href="#path-1"></use>
                </g>
            </g>
        </g>
    </g>
</svg>